HIERARCHY
ROOT Hips
{
	OFFSET	0.00	0.00	0.00
	CHANNELS 6 Xposition Yposition Zposition Zrotation Xrotation Yrotation
	JOINT LeftUpLeg
	{
		OFFSET	 0.126116	-0.014019	-0.065224
		CHANNELS 3 Zrotation Xrotation Yrotation
		JOINT LeftLeg
		{
			OFFSET	 0.000000	 0.000000	 0.569914
			CHANNELS 3 Zrotation Xrotation Yrotation
			JOINT LeftFoot
			{
				OFFSET	 0.000000	 0.000000	 0.544423
				CHANNELS 3 Zrotation Xrotation Yrotation
				JOINT LeftToeBase
				{
					OFFSET	 0.000000	 0.000000	 0.207117
					CHANNELS 3 Zrotation Xrotation Yrotation
					End Site
					{
						OFFSET	 0.000000	 0.000000	 0.207117
					}
				}
			}
		}
	}
	JOINT RightUpLeg
	{
		OFFSET	-0.124023	-0.008373	-0.065224
		CHANNELS 3 Zrotation Xrotation Yrotation
		JOINT RightLeg
		{
			OFFSET	 0.000000	 0.000000	 0.570047
			CHANNELS 3 Zrotation Xrotation Yrotation
			JOINT RightFoot
			{
				OFFSET	 0.000000	 0.000000	 0.544354
				CHANNELS 3 Zrotation Xrotation Yrotation
				JOINT RightToeBase
				{
					OFFSET	 0.000000	 0.000000	 0.207540
					CHANNELS 3 Zrotation Xrotation Yrotation
					End Site
					{
						OFFSET	 0.000000	 0.000000	 0.207540
					}
				}
			}
		}
	}
	JOINT Spine
	{
		OFFSET	 0.000184	-0.007763	 0.117403
		CHANNELS 3 Zrotation Xrotation Yrotation
		JOINT Spine1
		{
			OFFSET	 0.000000	 0.000000	 0.137269
			CHANNELS 3 Zrotation Xrotation Yrotation
			JOINT Spine2
			{
				OFFSET	 0.000000	 0.000000	 0.156879
				CHANNELS 3 Zrotation Xrotation Yrotation
				JOINT LeftShoulder
				{
					OFFSET	 0.080501	-0.002496	 0.160144
					CHANNELS 3 Zrotation Xrotation Yrotation
					JOINT LeftArm
					{
						OFFSET	 0.000000	 0.000000	 0.164363
						CHANNELS 3 Zrotation Xrotation Yrotation
						JOINT LeftForeArm
						{
							OFFSET	 0.000000	 0.000000	 0.364576
							CHANNELS 3 Zrotation Xrotation Yrotation
							JOINT LeftHand
							{
								OFFSET	 0.000000	 0.000000	 0.360812
								CHANNELS 3 Zrotation Xrotation Yrotation
								JOINT LeftHandIndex1
								{
									OFFSET	 0.000000	 0.000000	 0.086006
									CHANNELS 3 Zrotation Xrotation Yrotation
									JOINT LeftHandIndex2
									{
										OFFSET	 0.000000	 0.000000	 0.047237
										CHANNELS 3 Zrotation Xrotation Yrotation
										JOINT LeftHandIndex3
										{
											OFFSET	-0.004284	-0.000551	 0.038165
											CHANNELS 3 Zrotation Xrotation Yrotation
											End Site
											{
												OFFSET	-0.004284	-0.000551	 0.038165
											}
										}
									}
								}
							}
						}
					}
				}
				JOINT Neck
				{
					OFFSET	 0.000000	 0.000000	 0.176489
					CHANNELS 3 Zrotation Xrotation Yrotation
					JOINT Head
					{
						OFFSET	 0.000000	-0.001747	 0.077940
						CHANNELS 3 Zrotation Xrotation Yrotation
						End Site
						{
							OFFSET	 0.000000	-0.001747	 0.077940
						}
					}
				}
				JOINT RightShoulder
				{
					OFFSET	-0.080363	 0.000306	 0.159706
					CHANNELS 3 Zrotation Xrotation Yrotation
					JOINT RightArm
					{
						OFFSET	 0.000000	 0.000000	 0.164196
						CHANNELS 3 Zrotation Xrotation Yrotation
						JOINT RightForeArm
						{
							OFFSET	 0.000000	 0.000000	 0.365611
							CHANNELS 3 Zrotation Xrotation Yrotation
							JOINT RightHand
							{
								OFFSET	 0.000000	 0.000000	 0.360648
								CHANNELS 3 Zrotation Xrotation Yrotation
								JOINT RightHandIndex1
								{
									OFFSET	 0.000000	 0.000000	 0.069977
									CHANNELS 3 Zrotation Xrotation Yrotation
									JOINT RightHandIndex2
									{
										OFFSET	 0.000000	 0.000000	 0.052305
										CHANNELS 3 Zrotation Xrotation Yrotation
										JOINT RightHandIndex3
										{
											OFFSET	 0.009002	-0.000782	 0.042196
											CHANNELS 3 Zrotation Xrotation Yrotation
											End Site
											{
												OFFSET	 0.009002	-0.000782	 0.042196
											}
										}
									}
								}
							}
						}
					}
				}
			}
		}
	}
}
MOTION
Frames:    7
Frame Time: 0.03333334
-0.018482	-1.166840	 1.275309	 179.568600	 6.704094	 0.285670	-8.827709	-9.177872	-177.750300	 0.980301	-12.497090	 0.272911	 13.253170	 67.791820	-11.919050	-2.385969	 28.421210	 0.000683	 23.149880	-8.758332	 177.653000	-2.113553	-9.233412	-0.230478	 1.723759	 65.407820	 8.236648	 2.406528	 19.993810	-0.173223	-9.296071	 2.374528	 0.941472	-6.800535	-15.181750	 5.297692	 17.367920	 7.562106	-14.582450	-96.855920	 86.735770	-170.910500	-10.906810	 13.564600	 10.301160	-6.064440	-3.495802	-28.096090	 1.115495	-7.325731	-5.149126	-3.740293	-8.700747	 3.103741	-5.213519	-0.193819	 3.566523	-1.378229	 35.397820	-2.634230	 0.469661	-1.306854	 1.128999	 5.061508	 15.128800	-1.128280	 104.097800	 88.275120	 160.879000	-4.166234	 2.155864	-2.893584	 2.681284	-7.219471	 18.864130	-41.580060	 38.801430	 99.739520	-5.361348	-2.883226	-32.652830	 5.070817	-0.697411	-9.399697	-2.350882	 35.473990	 5.254307
-0.018235	-1.166863	 1.275383	 179.540200	 7.092758	 0.362059	-8.077821	-9.710121	-177.864100	 0.578322	-12.851750	 0.191090	 14.581080	 68.057250	-12.950660	-2.385984	 28.418530	 0.000742	 22.748160	-9.063791	 177.707100	-1.733069	-9.051803	-0.166087	 0.430080	 65.367260	 9.279193	 2.407095	 19.286940	-0.187215	-9.309044	 2.271394	 1.147955	-7.193455	-16.375300	 4.587965	 17.901110	 9.023892	-14.830160	-96.855720	 86.735650	-170.910700	-13.127100	 14.064170	 10.953440	-4.979966	-4.183162	-28.664610	 1.640810	-7.746463	-5.163418	-3.890911	-9.617556	 2.738589	-5.213519	-0.193819	 3.566523	-1.378229	 35.397820	-2.634230	 0.506760	-1.097481	 1.229659	 5.112416	 15.502940	-1.191456	 104.097300	 88.275120	 160.879400	-3.266928	 2.192125	-3.076384	 0.729504	-8.090178	 19.075170	-42.483770	 39.071310	 103.224600	-5.985186	-3.101363	-34.166880	 5.070817	-0.697411	-9.399697	-2.350882	 35.473990	 5.254307
-0.018056	-1.166883	 1.275443	 179.524900	 7.360794	 0.418066	-7.508446	-10.080290	-177.938600	 0.276936	-13.102960	 0.126430	 15.647120	 68.334860	-13.786630	-2.385987	 28.416510	 0.000784	 22.449730	-9.273094	 177.736000	-1.449101	-8.923259	-0.119692	-0.616478	 65.429610	 10.148780	 2.407397	 18.743090	-0.197937	-9.319644	 2.169230	 1.289920	-7.482433	-17.143150	 4.094290	 18.277070	 10.029700	-15.013020	-96.855960	 86.735710	-170.910400	-14.727130	 14.433360	 11.461770	-4.131594	-4.743979	-29.109400	 2.112280	-8.070744	-5.156780	-4.011473	-10.257980	 2.453895	-5.213519	-0.193819	 3.566523	-1.378229	 35.397820	-2.634230	 0.535033	-0.936291	 1.306904	 5.147891	 15.755750	-1.235760	 104.097300	 88.275010	 160.879500	-2.649536	 2.237379	-3.239462	-0.618406	-8.747092	 19.282910	-42.983760	 39.290020	 105.442900	-6.421276	-3.240843	-35.220220	 5.070817	-0.697411	-9.399697	-2.350882	 35.473990	 5.254307
-0.017439	-1.167071	 1.275642	 179.423400	 8.462968	 0.633421	-5.907768	-11.757580	-178.252700	-0.565129	-14.395420	-0.070706	 18.514030	 68.298810	-16.186850	-2.385929	 28.429410	 0.000506	 21.566580	-10.504360	 177.898900	-0.653414	-9.166857	 0.003836	-3.201410	 64.775090	 12.197210	 2.407682	 17.314760	-0.225922	-9.356128	 1.611247	 1.781162	-8.592980	-19.525870	 2.296235	 19.640720	 13.356300	-15.664770	-96.855960	 86.735830	-170.910400	-21.240660	 16.469690	 14.755840	-2.324166	-6.777409	-33.115350	 2.542570	-9.403871	-4.928491	-4.255193	-12.785690	 1.918237	-5.213519	-0.193819	 3.566523	-1.378229	 35.397820	-2.634230	 0.608105	-0.510075	 1.517298	 5.300859	 16.848440	-1.439595	 104.097600	 88.275120	 160.879100	-0.101923	 3.470167	-5.132350	-5.336157	-12.975560	 22.714260	-43.908940	 41.565290	 111.940900	-8.155660	-3.674734	-39.392570	 5.070817	-0.697411	-9.399697	-2.350882	 35.473990	 5.254307
-0.017618	-1.167392	 1.275376	 179.463200	 8.275395	 0.597534	-5.916503	-12.038110	-178.262900	-0.549658	-15.433130	-0.071564	 18.988960	 69.409630	-16.602430	-2.385795	 28.460320	-0.000164	 21.589590	-11.226900	 177.910200	-0.659925	-11.170120	 0.003399	-3.429255	 66.440250	 12.442100	 2.407691	 17.343850	-0.225355	-9.366926	 1.954237	 1.679942	-8.340754	-18.911920	 2.799724	 19.360300	 12.609110	-15.615650	-96.855960	 86.735770	-170.910400	-19.385440	 18.246870	 17.100740	-3.022411	-7.755031	-38.712450	 3.027399	-9.162158	-4.996711	-4.127919	-12.429000	 2.204057	-5.213519	-0.193819	 3.566523	-1.378229	 35.397820	-2.634230	 0.606379	-0.514463	 1.527189	 5.272944	 16.602210	-1.414425	 104.097500	 88.275120	 160.879200	 0.016135	 6.012005	-7.924135	-2.695513	-15.742930	 29.558840	-42.268080	 44.737740	 107.780100	-7.852817	-3.554361	-38.711770	 5.070817	-0.697411	-9.399697	-2.350882	 35.473990	 5.254307
-0.017907	-1.167916	 1.274957	 179.522900	 7.953146	 0.537208	-5.946005	-12.399560	-178.276300	-0.518014	-16.963330	-0.069223	 19.807350	 71.153150	-17.325400	-2.385678	 28.486880	-0.000735	 21.636380	-12.085120	 177.928600	-0.684331	-13.816240	-0.001636	-3.806463	 68.850430	 12.855360	 2.407691	 17.367620	-0.224891	-9.386454	 2.450097	 1.513366	-7.929223	-17.765990	 3.648145	 18.900210	 11.343470	-15.544350	-96.855770	 86.735830	-170.910600	-16.339990	 21.014120	 19.910470	-4.069106	-8.969249	-46.180220	 3.798195	-8.804711	-5.100431	-4.003914	-11.826180	 2.483917	-5.213519	-0.193819	 3.566523	-1.378229	 35.397820	-2.634230	 0.604627	-0.517434	 1.536831	 5.226398	 16.209280	-1.361259	 104.097500	 88.275010	 160.879200	 0.040554	 9.661174	-11.185950	 1.310878	-18.337210	 38.528700	-39.141920	 48.164650	 100.524700	-7.363004	-3.387469	-37.576160	 5.070817	-0.697411	-9.399697	-2.350882	 35.473990	 5.254307
-0.018080	-1.168563	 1.274552	 179.522800	 7.961958	 0.520674	-5.917612	-13.219250	-178.399000	-0.526224	-18.772780	-0.078999	 20.474570	 72.119290	-18.000000	-2.385733	 28.475570	-0.000489	 21.625900	-13.215340	 178.053600	-0.682663	-16.357270	-0.001457	-3.751551	 70.264120	 12.770100	 2.407685	 17.350060	-0.225237	-9.410994	 2.792534	 1.475012	-7.781883	-17.123410	 4.059971	 18.766870	 10.782920	-15.607460	-96.856090	 86.735650	-170.910300	-14.868990	 24.614560	 22.847200	-5.316396	-9.973400	-53.658920	 3.837219	-8.787984	-5.106823	-3.929799	-11.918620	 2.655989	-5.213519	-0.193819	 3.566523	-1.378229	 35.397820	-2.634230	 0.603822	-0.511355	 1.539570	 5.224334	 16.191580	-1.343384	 104.097400	 88.275010	 160.879400	 0.878508	 13.761060	-14.041100	 4.203846	-21.224130	 46.981550	-36.229690	 51.139970	 94.743820	-7.367729	-3.363270	-37.607460	 5.070817	-0.697411	-9.399697	-2.350882	 35.473990	 5.254307
